<svg xmlns="http://www.w3.org/2000/svg" width="22.58" height="22.58" viewBox="0 0 22.58 22.58">
	<style type="text/css">
		.st0{fill:#141613;}
	</style>
	<path class="st0" d="M11.29,0C8.22,0 7.84,0.01 6.63,0.06C5.43,0.12 4.61,0.31 3.89,0.59C3.15,0.88 2.52,1.26 1.89,1.89C1.26,2.52 0.88,3.15 0.59,3.89C0.31,4.61 0.12,5.43 0.06,6.63C0.01,7.84 0,8.22 0,11.29C0,14.36 0.01,14.74 0.06,15.95C0.12,17.15 0.31,17.97 0.59,18.69C0.88,19.43 1.26,20.06 1.89,20.69C2.52,21.32 3.15,21.7 3.89,21.99C4.61,22.27 5.43,22.46 6.63,22.52C7.84,22.57 8.22,22.58 11.29,22.58C14.36,22.58 14.74,22.57 15.95,22.52C17.15,22.46 17.97,22.27 18.69,21.99C19.43,21.7 20.06,21.32 20.69,20.69C21.32,20.06 21.7,19.43 21.99,18.69C22.27,17.97 22.46,17.15 22.52,15.95C22.57,14.74 22.58,14.36 22.58,11.29C22.58,8.22 22.57,7.84 22.52,6.63C22.46,5.43 22.27,4.61 21.99,3.89C21.7,3.15 21.32,2.52 20.69,1.89C20.06,1.26 19.43,0.88 18.69,0.59C17.97,0.31 17.15,0.12 15.95,0.06C14.74,0.01 14.36,0 11.29,0M11.29,2.03C14.31,2.03 14.66,2.04 15.85,2.1C16.95,2.15 17.55,2.33 17.95,2.49C18.48,2.69 18.85,2.93 19.25,3.33C19.64,3.73 19.89,4.1 20.09,4.63C20.25,5.03 20.43,5.62 20.48,6.73C20.54,7.92 20.55,8.27 20.55,11.29C20.55,14.31 20.54,14.66 20.48,15.85C20.43,16.95 20.25,17.55 20.09,17.95C19.89,18.48 19.64,18.85 19.25,19.25C18.85,19.64 18.48,19.89 17.95,20.09C17.55,20.25 16.95,20.43 15.85,20.48C14.66,20.54 14.31,20.55 11.29,20.55C8.27,20.55 7.92,20.54 6.73,20.48C5.62,20.43 5.03,20.25 4.63,20.09C4.1,19.89 3.73,19.64 3.33,19.25C2.93,18.85 2.69,18.48 2.48,17.95C2.33,17.55 2.15,16.95 2.1,15.85C2.04,14.66 2.03,14.31 2.03,11.29C2.03,8.27 2.04,7.92 2.1,6.73C2.15,5.62 2.33,5.03 2.48,4.63C2.69,4.1 2.93,3.73 3.33,3.33C3.73,2.93 4.1,2.69 4.63,2.49C5.03,2.33 5.62,2.15 6.73,2.1C7.92,2.04 8.27,2.03 11.29,2.03"/>
	<path class="st0" d="M11.29,15.05C9.21,15.05 7.52,13.37 7.52,11.29C7.52,9.21 9.21,7.53 11.29,7.53C13.37,7.53 15.05,9.21 15.05,11.29C15.05,13.37 13.37,15.05 11.29,15.05M11.29,5.49C8.09,5.49 5.49,8.09 5.49,11.29C5.49,14.49 8.09,17.09 11.29,17.09C14.49,17.09 17.09,14.49 17.09,11.29C17.09,8.09 14.49,5.49 11.29,5.49"/>
	<path class="st0" d="M18.67,5.26C18.67,6.01 18.07,6.62 17.32,6.62C16.57,6.62 15.96,6.01 15.96,5.26C15.96,4.51 16.57,3.91 17.32,3.91C18.07,3.91 18.67,4.51 18.67,5.26"/>
</svg>