<svg width="132" height="19" viewBox="0 0 132 19" fill="none" xmlns="http://www.w3.org/2000/svg">
    <mask id="path-1-inside-1_31_32609" fill="white">
        <path d="M19.3097 7.90537L15.033 12.1645L16.0429 18.18C16.0869 18.4431 15.9811 18.7089 15.7697 18.866C15.6502 18.9551 15.5081 19 15.366 19C15.2568 19 15.1469 18.9733 15.0467 18.9193L9.75856 16.0792L4.47112 18.9186C4.24042 19.0435 3.95961 19.0231 3.74814 18.8653C3.53667 18.7082 3.43093 18.4424 3.47487 18.1793L4.48485 12.1638L0.207383 7.90537C0.0206304 7.71879 -0.0473422 7.43962 0.0336756 7.1864C0.114693 6.93318 0.329597 6.7473 0.588442 6.70872L6.49931 5.83192L9.14269 0.359311C9.37407 -0.11977 10.1431 -0.11977 10.3744 0.359311L13.0178 5.83192L18.9287 6.70872C19.1875 6.7473 19.4024 6.93248 19.4834 7.1864C19.5645 7.44032 19.4965 7.71809 19.3097 7.90537Z"/>
        <path d="M47.4305 7.90537L43.1537 12.1645L44.1637 18.18C44.2076 18.4431 44.1019 18.7089 43.8904 18.866C43.7709 18.9551 43.6288 19 43.4867 19C43.3775 19 43.2677 18.9733 43.1674 18.9193L37.8793 16.0792L32.5918 18.9186C32.3611 19.0435 32.0803 19.0231 31.8689 18.8653C31.6574 18.7082 31.5517 18.4424 31.5956 18.1793L32.6056 12.1638L28.3281 7.90537C28.1414 7.71879 28.0734 7.43962 28.1544 7.1864C28.2354 6.93318 28.4503 6.7473 28.7092 6.70872L34.62 5.83192L37.2634 0.359311C37.4948 -0.11977 38.2638 -0.11977 38.4952 0.359311L41.1385 5.83192L47.0494 6.70872C47.3082 6.7473 47.5231 6.93248 47.6042 7.1864C47.6852 7.44032 47.6172 7.71809 47.4305 7.90537Z"/>
        <path d="M75.5512 7.90537L71.2744 12.1645L72.2844 18.18C72.3283 18.4431 72.2226 18.7089 72.0111 18.866C71.8916 18.9551 71.7495 19 71.6074 19C71.4982 19 71.3884 18.9733 71.2881 18.9193L66 16.0792L60.7126 18.9186C60.4819 19.0435 60.201 19.0231 59.9896 18.8653C59.7781 18.7082 59.6724 18.4424 59.7163 18.1793L60.7263 12.1638L56.4488 7.90537C56.2621 7.71879 56.1941 7.43962 56.2751 7.1864C56.3561 6.93318 56.571 6.7473 56.8299 6.70872L62.7408 5.83192L65.3841 0.359311C65.6155 -0.11977 66.3845 -0.11977 66.6159 0.359311L69.2592 5.83192L75.1701 6.70872C75.429 6.7473 75.6439 6.93248 75.7249 7.1864C75.8059 7.44032 75.7379 7.71809 75.5512 7.90537Z"/>
        <path d="M103.672 7.90537L99.3951 12.1645L100.405 18.18C100.449 18.4431 100.343 18.7089 100.132 18.866C100.012 18.9551 99.8702 19 99.7281 19C99.6189 19 99.5091 18.9733 99.4088 18.9193L94.1207 16.0792L88.8333 18.9186C88.6026 19.0435 88.3218 19.0231 88.1103 18.8653C87.8988 18.7082 87.7931 18.4424 87.837 18.1793L88.847 12.1638L84.5695 7.90537C84.3828 7.71879 84.3148 7.43962 84.3958 7.1864C84.4769 6.93318 84.6918 6.7473 84.9506 6.70872L90.8615 5.83192L93.5048 0.359311C93.7362 -0.11977 94.5052 -0.11977 94.7366 0.359311L97.38 5.83192L103.291 6.70872C103.55 6.7473 103.765 6.93248 103.846 7.1864C103.927 7.44032 103.859 7.71809 103.672 7.90537Z"/>
        <path d="M131.793 7.90537L127.516 12.1645L128.526 18.18C128.57 18.4431 128.464 18.7089 128.253 18.866C128.133 18.9551 127.991 19 127.849 19C127.74 19 127.63 18.9733 127.53 18.9193L122.241 16.0792L116.954 18.9186C116.723 19.0435 116.442 19.0231 116.231 18.8653C116.02 18.7082 115.914 18.4424 115.958 18.1793L116.968 12.1638L112.69 7.90537C112.504 7.71879 112.436 7.43962 112.517 7.1864C112.598 6.93318 112.812 6.7473 113.071 6.70872L118.982 5.83192L121.626 0.359311C121.857 -0.11977 122.626 -0.11977 122.857 0.359311L125.501 5.83192L131.412 6.70872C131.67 6.7473 131.885 6.93248 131.966 7.1864C132.047 7.44032 131.979 7.71809 131.793 7.90537Z"/>
    </mask>
    <path d="M19.3097 7.90537L15.033 12.1645L16.0429 18.18C16.0869 18.4431 15.9811 18.7089 15.7697 18.866C15.6502 18.9551 15.5081 19 15.366 19C15.2568 19 15.1469 18.9733 15.0467 18.9193L9.75856 16.0792L4.47112 18.9186C4.24042 19.0435 3.95961 19.0231 3.74814 18.8653C3.53667 18.7082 3.43093 18.4424 3.47487 18.1793L4.48485 12.1638L0.207383 7.90537C0.0206304 7.71879 -0.0473422 7.43962 0.0336756 7.1864C0.114693 6.93318 0.329597 6.7473 0.588442 6.70872L6.49931 5.83192L9.14269 0.359311C9.37407 -0.11977 10.1431 -0.11977 10.3744 0.359311L13.0178 5.83192L18.9287 6.70872C19.1875 6.7473 19.4024 6.93248 19.4834 7.1864C19.5645 7.44032 19.4965 7.71809 19.3097 7.90537Z" fill="#c7c7c7"/>
    <path d="M47.4305 7.90537L43.1537 12.1645L44.1637 18.18C44.2076 18.4431 44.1019 18.7089 43.8904 18.866C43.7709 18.9551 43.6288 19 43.4867 19C43.3775 19 43.2677 18.9733 43.1674 18.9193L37.8793 16.0792L32.5918 18.9186C32.3611 19.0435 32.0803 19.0231 31.8689 18.8653C31.6574 18.7082 31.5517 18.4424 31.5956 18.1793L32.6056 12.1638L28.3281 7.90537C28.1414 7.71879 28.0734 7.43962 28.1544 7.1864C28.2354 6.93318 28.4503 6.7473 28.7092 6.70872L34.62 5.83192L37.2634 0.359311C37.4948 -0.11977 38.2638 -0.11977 38.4952 0.359311L41.1385 5.83192L47.0494 6.70872C47.3082 6.7473 47.5231 6.93248 47.6042 7.1864C47.6852 7.44032 47.6172 7.71809 47.4305 7.90537Z" fill="#c7c7c7"/>
    <path d="M75.5512 7.90537L71.2744 12.1645L72.2844 18.18C72.3283 18.4431 72.2226 18.7089 72.0111 18.866C71.8916 18.9551 71.7495 19 71.6074 19C71.4982 19 71.3884 18.9733 71.2881 18.9193L66 16.0792L60.7126 18.9186C60.4819 19.0435 60.201 19.0231 59.9896 18.8653C59.7781 18.7082 59.6724 18.4424 59.7163 18.1793L60.7263 12.1638L56.4488 7.90537C56.2621 7.71879 56.1941 7.43962 56.2751 7.1864C56.3561 6.93318 56.571 6.7473 56.8299 6.70872L62.7408 5.83192L65.3841 0.359311C65.6155 -0.11977 66.3845 -0.11977 66.6159 0.359311L69.2592 5.83192L75.1701 6.70872C75.429 6.7473 75.6439 6.93248 75.7249 7.1864C75.8059 7.44032 75.7379 7.71809 75.5512 7.90537Z" fill="#c7c7c7"/>
    <path d="M103.672 7.90537L99.3951 12.1645L100.405 18.18C100.449 18.4431 100.343 18.7089 100.132 18.866C100.012 18.9551 99.8702 19 99.7281 19C99.6189 19 99.5091 18.9733 99.4088 18.9193L94.1207 16.0792L88.8333 18.9186C88.6026 19.0435 88.3218 19.0231 88.1103 18.8653C87.8988 18.7082 87.7931 18.4424 87.837 18.1793L88.847 12.1638L84.5695 7.90537C84.3828 7.71879 84.3148 7.43962 84.3958 7.1864C84.4769 6.93318 84.6918 6.7473 84.9506 6.70872L90.8615 5.83192L93.5048 0.359311C93.7362 -0.11977 94.5052 -0.11977 94.7366 0.359311L97.38 5.83192L103.291 6.70872C103.55 6.7473 103.765 6.93248 103.846 7.1864C103.927 7.44032 103.859 7.71809 103.672 7.90537Z" fill="#c7c7c7"/>
    <path d="M131.793 7.90537L127.516 12.1645L128.526 18.18C128.57 18.4431 128.464 18.7089 128.253 18.866C128.133 18.9551 127.991 19 127.849 19C127.74 19 127.63 18.9733 127.53 18.9193L122.241 16.0792L116.954 18.9186C116.723 19.0435 116.442 19.0231 116.231 18.8653C116.02 18.7082 115.914 18.4424 115.958 18.1793L116.968 12.1638L112.69 7.90537C112.504 7.71879 112.436 7.43962 112.517 7.1864C112.598 6.93318 112.812 6.7473 113.071 6.70872L118.982 5.83192L121.626 0.359311C121.857 -0.11977 122.626 -0.11977 122.857 0.359311L125.501 5.83192L131.412 6.70872C131.67 6.7473 131.885 6.93248 131.966 7.1864C132.047 7.44032 131.979 7.71809 131.793 7.90537Z" fill="#c7c7c7"/>
    <path d="M19.3097 7.90537L15.033 12.1645L16.0429 18.18C16.0869 18.4431 15.9811 18.7089 15.7697 18.866C15.6502 18.9551 15.5081 19 15.366 19C15.2568 19 15.1469 18.9733 15.0467 18.9193L9.75856 16.0792L4.47112 18.9186C4.24042 19.0435 3.95961 19.0231 3.74814 18.8653C3.53667 18.7082 3.43093 18.4424 3.47487 18.1793L4.48485 12.1638L0.207383 7.90537C0.0206304 7.71879 -0.0473422 7.43962 0.0336756 7.1864C0.114693 6.93318 0.329597 6.7473 0.588442 6.70872L6.49931 5.83192L9.14269 0.359311C9.37407 -0.11977 10.1431 -0.11977 10.3744 0.359311L13.0178 5.83192L18.9287 6.70872C19.1875 6.7473 19.4024 6.93248 19.4834 7.1864C19.5645 7.44032 19.4965 7.71809 19.3097 7.90537Z" stroke="#c7c7c7" stroke-width="3.2" mask="url(#path-1-inside-1_31_32609)"/>
    <path d="M47.4305 7.90537L43.1537 12.1645L44.1637 18.18C44.2076 18.4431 44.1019 18.7089 43.8904 18.866C43.7709 18.9551 43.6288 19 43.4867 19C43.3775 19 43.2677 18.9733 43.1674 18.9193L37.8793 16.0792L32.5918 18.9186C32.3611 19.0435 32.0803 19.0231 31.8689 18.8653C31.6574 18.7082 31.5517 18.4424 31.5956 18.1793L32.6056 12.1638L28.3281 7.90537C28.1414 7.71879 28.0734 7.43962 28.1544 7.1864C28.2354 6.93318 28.4503 6.7473 28.7092 6.70872L34.62 5.83192L37.2634 0.359311C37.4948 -0.11977 38.2638 -0.11977 38.4952 0.359311L41.1385 5.83192L47.0494 6.70872C47.3082 6.7473 47.5231 6.93248 47.6042 7.1864C47.6852 7.44032 47.6172 7.71809 47.4305 7.90537Z" stroke="#c7c7c7" stroke-width="3.2" mask="url(#path-1-inside-1_31_32609)"/>
    <path d="M75.5512 7.90537L71.2744 12.1645L72.2844 18.18C72.3283 18.4431 72.2226 18.7089 72.0111 18.866C71.8916 18.9551 71.7495 19 71.6074 19C71.4982 19 71.3884 18.9733 71.2881 18.9193L66 16.0792L60.7126 18.9186C60.4819 19.0435 60.201 19.0231 59.9896 18.8653C59.7781 18.7082 59.6724 18.4424 59.7163 18.1793L60.7263 12.1638L56.4488 7.90537C56.2621 7.71879 56.1941 7.43962 56.2751 7.1864C56.3561 6.93318 56.571 6.7473 56.8299 6.70872L62.7408 5.83192L65.3841 0.359311C65.6155 -0.11977 66.3845 -0.11977 66.6159 0.359311L69.2592 5.83192L75.1701 6.70872C75.429 6.7473 75.6439 6.93248 75.7249 7.1864C75.8059 7.44032 75.7379 7.71809 75.5512 7.90537Z" stroke="#c7c7c7" stroke-width="3.2" mask="url(#path-1-inside-1_31_32609)"/>
    <path d="M103.672 7.90537L99.3951 12.1645L100.405 18.18C100.449 18.4431 100.343 18.7089 100.132 18.866C100.012 18.9551 99.8702 19 99.7281 19C99.6189 19 99.5091 18.9733 99.4088 18.9193L94.1207 16.0792L88.8333 18.9186C88.6026 19.0435 88.3218 19.0231 88.1103 18.8653C87.8988 18.7082 87.7931 18.4424 87.837 18.1793L88.847 12.1638L84.5695 7.90537C84.3828 7.71879 84.3148 7.43962 84.3958 7.1864C84.4769 6.93318 84.6918 6.7473 84.9506 6.70872L90.8615 5.83192L93.5048 0.359311C93.7362 -0.11977 94.5052 -0.11977 94.7366 0.359311L97.38 5.83192L103.291 6.70872C103.55 6.7473 103.765 6.93248 103.846 7.1864C103.927 7.44032 103.859 7.71809 103.672 7.90537Z" stroke="#c7c7c7" stroke-width="3.2" mask="url(#path-1-inside-1_31_32609)"/>
    <path d="M131.793 7.90537L127.516 12.1645L128.526 18.18C128.57 18.4431 128.464 18.7089 128.253 18.866C128.133 18.9551 127.991 19 127.849 19C127.74 19 127.63 18.9733 127.53 18.9193L122.241 16.0792L116.954 18.9186C116.723 19.0435 116.442 19.0231 116.231 18.8653C116.02 18.7082 115.914 18.4424 115.958 18.1793L116.968 12.1638L112.69 7.90537C112.504 7.71879 112.436 7.43962 112.517 7.1864C112.598 6.93318 112.812 6.7473 113.071 6.70872L118.982 5.83192L121.626 0.359311C121.857 -0.11977 122.626 -0.11977 122.857 0.359311L125.501 5.83192L131.412 6.70872C131.67 6.7473 131.885 6.93248 131.966 7.1864C132.047 7.44032 131.979 7.71809 131.793 7.90537Z" stroke="#c7c7c7" stroke-width="3.2" mask="url(#path-1-inside-1_31_32609)"/>
</svg>
