<svg xmlns="http://www.w3.org/2000/svg" width="27.39" height="27.4" viewBox="0 0 27.39 27.4">
	<style type="text/css">
		.st0{fill:#141613;fill-rule:evenodd;}
	</style>
	<path class="st0" d="M13.94,24.56C11.64,24.56 9.51,23.88 7.72,22.71L3.38,24.09L4.79,19.92C3.43,18.07 2.63,15.8 2.63,13.34C2.63,12.98 2.65,12.61 2.69,12.25C3.24,6.57 8.08,2.12 13.94,2.12C19.88,2.12 24.76,6.69 25.21,12.47C25.24,12.76 25.25,13.05 25.25,13.34C25.25,19.53 20.18,24.56 13.94,24.56M27.38,13C27.2,5.79 21.26,0 13.94,0C6.71,0 0.82,5.66 0.5,12.76C0.5,12.95 0.49,13.15 0.49,13.34C0.49,15.87 1.2,18.22 2.42,20.24L0,27.4L7.44,25.03C9.37,26.09 11.59,26.69 13.94,26.69C21.37,26.69 27.39,20.72 27.39,13.34C27.39,13.23 27.39,13.12 27.38,13"/>
	<path class="st0" d="M20.11,16.04C19.77,15.88 18.15,15.08 17.85,14.98C17.55,14.86 17.33,14.81 17.11,15.14C16.89,15.47 16.25,16.2 16.06,16.42C15.87,16.64 15.68,16.66 15.35,16.5C15.02,16.33 13.95,15.99 12.7,14.87C11.72,14.01 11.05,12.94 10.86,12.61C10.67,12.29 10.84,12.11 11.01,11.95C11.16,11.8 11.34,11.56 11.5,11.37C11.55,11.32 11.59,11.27 11.63,11.22C11.7,11.1 11.76,10.98 11.83,10.82C11.95,10.6 11.89,10.42 11.81,10.25C11.73,10.09 11.06,8.48 10.79,7.82C10.52,7.17 10.24,7.28 10.04,7.28C9.86,7.28 9.63,7.25 9.42,7.25C9.19,7.25 8.84,7.33 8.53,7.66C8.23,7.99 7.38,8.78 7.38,10.39C7.38,10.77 7.45,11.15 7.55,11.51C7.88,12.66 8.6,13.61 8.73,13.77C8.89,13.99 11.01,17.4 14.36,18.72C17.71,20.02 17.71,19.58 18.32,19.53C18.92,19.48 20.27,18.74 20.54,17.97C20.82,17.21 20.82,16.56 20.74,16.42C20.65,16.28 20.43,16.2 20.11,16.04"/>
</svg>